<?xml version="1.0" standalone="no"?>
<svg xmlns:xlink="http://www.w3.org/1999/xlink" id="wave" style="transform:rotate(180deg); transition: 0.3s" viewBox="0 0 1440 100" version="1.1" xmlns="http://www.w3.org/2000/svg"><defs><linearGradient id="sw-gradient-0" x1="0" x2="0" y1="1" y2="0"><stop stop-color="rgba(255, 20, 147, 1)" offset="0%"/><stop stop-color="rgba(255, 20, 147, 1)" offset="100%"/></linearGradient></defs><path style="transform:translate(0, 0px); opacity:1" fill="url(#sw-gradient-0)" d="M0,20L26.7,23.3C53.3,27,107,33,160,41.7C213.3,50,267,60,320,61.7C373.3,63,427,57,480,46.7C533.3,37,587,23,640,20C693.3,17,747,23,800,25C853.3,27,907,23,960,26.7C1013.3,30,1067,40,1120,46.7C1173.3,53,1227,57,1280,56.7C1333.3,57,1387,53,1440,48.3C1493.3,43,1547,37,1600,30C1653.3,23,1707,17,1760,25C1813.3,33,1867,57,1920,68.3C1973.3,80,2027,80,2080,68.3C2133.3,57,2187,33,2240,28.3C2293.3,23,2347,37,2400,43.3C2453.3,50,2507,50,2560,43.3C2613.3,37,2667,23,2720,28.3C2773.3,33,2827,57,2880,60C2933.3,63,2987,47,3040,38.3C3093.3,30,3147,30,3200,28.3C3253.3,27,3307,23,3360,30C3413.3,37,3467,53,3520,51.7C3573.3,50,3627,30,3680,23.3C3733.3,17,3787,23,3813,26.7L3840,30L3840,100L3813.3,100C3786.7,100,3733,100,3680,100C3626.7,100,3573,100,3520,100C3466.7,100,3413,100,3360,100C3306.7,100,3253,100,3200,100C3146.7,100,3093,100,3040,100C2986.7,100,2933,100,2880,100C2826.7,100,2773,100,2720,100C2666.7,100,2613,100,2560,100C2506.7,100,2453,100,2400,100C2346.7,100,2293,100,2240,100C2186.7,100,2133,100,2080,100C2026.7,100,1973,100,1920,100C1866.7,100,1813,100,1760,100C1706.7,100,1653,100,1600,100C1546.7,100,1493,100,1440,100C1386.7,100,1333,100,1280,100C1226.7,100,1173,100,1120,100C1066.7,100,1013,100,960,100C906.7,100,853,100,800,100C746.7,100,693,100,640,100C586.7,100,533,100,480,100C426.7,100,373,100,320,100C266.7,100,213,100,160,100C106.7,100,53,100,27,100L0,100Z"/></svg>